<svg width="31" height="30" viewBox="0 0 31 30" fill="none" xmlns="http://www.w3.org/2000/svg">
<g clip-path="url(#clip0_40_2599)">
<path d="M30.9997 15.0918C30.9997 6.75555 24.0915 -0.00195312 15.5711 -0.00195312C7.04681 -7.81248e-05 0.138672 6.75555 0.138672 15.0937C0.138672 22.6255 5.78167 28.8693 13.1565 30.0018V19.4549H9.24153V15.0937H13.1604V11.7655C13.1604 7.98367 15.465 5.89492 18.9885 5.89492C20.678 5.89492 22.4426 6.1893 22.4426 6.1893V9.9018H20.4967C18.5816 9.9018 17.9837 11.0662 17.9837 12.2605V15.0918H22.2613L21.5786 19.453H17.9818V29.9999C25.3567 28.8674 30.9997 22.6237 30.9997 15.0918Z" fill="#F16767"/>
</g>
<defs>
<clipPath id="clip0_40_2599">
<rect width="30.8571" height="30" fill="white" transform="translate(0.142578)"/>
</clipPath>
</defs>
</svg>
