<svg width="32" height="30" viewBox="0 0 32 30" fill="none" xmlns="http://www.w3.org/2000/svg">
<path d="M8.57199 5.625C7.54901 5.625 6.56793 6.02009 5.84457 6.72335C5.12122 7.42661 4.71484 8.38044 4.71484 9.375V9.75188L16.2863 15.81L27.8577 9.75375V9.375C27.8577 8.38044 27.4513 7.42661 26.728 6.72335C26.0046 6.02009 25.0235 5.625 24.0006 5.625H8.57199ZM27.8577 11.8819L16.7433 17.7C16.6029 17.7735 16.4458 17.812 16.2863 17.812C16.1267 17.812 15.9697 17.7735 15.8292 17.7L4.71484 11.8819V20.625C4.71484 21.6196 5.12122 22.5734 5.84457 23.2766C6.56793 23.9799 7.54901 24.375 8.57199 24.375H24.0006C25.0235 24.375 26.0046 23.9799 26.728 23.2766C27.4513 22.5734 27.8577 21.6196 27.8577 20.625V11.8819Z" fill="#F16767"/>
</svg>
