<svg width="26" height="25" viewBox="0 0 26 25" fill="none" xmlns="http://www.w3.org/2000/svg">
<g clip-path="url(#clip0_40_2224)">
<path d="M24.3541 19.1926L18.9099 14.3801C18.6525 14.1527 18.3143 14.0314 17.9667 14.0419C17.6191 14.0523 17.2893 14.1937 17.0469 14.4361L13.842 17.6406C13.0706 17.4973 11.5197 17.0273 9.92326 15.4791C8.32683 13.9257 7.84335 12.414 7.70004 11.6692L10.9933 8.55201C11.243 8.3165 11.3886 7.99579 11.3994 7.65775C11.4101 7.31971 11.2852 6.99086 11.0509 6.74081L6.10228 1.44914C5.86796 1.19831 5.54229 1.04615 5.19444 1.025C4.8466 1.00385 4.50397 1.11537 4.23933 1.33586L1.33308 3.75904C1.10153 3.98497 0.963328 4.28567 0.944686 4.60409C0.924596 4.92961 0.541561 12.6406 6.69156 18.6223C12.0567 23.8372 18.7773 24.2187 20.6282 24.2187C20.8987 24.2187 21.0648 24.2109 21.109 24.2083C21.4364 24.1904 21.7456 24.0555 21.9768 23.8294L24.4679 21.0025C24.6956 20.7461 24.8111 20.4132 24.7899 20.0751C24.7686 19.7369 24.6122 19.4202 24.3541 19.1926V19.1926Z" fill="#F16767"/>
</g>
<defs>
<clipPath id="clip0_40_2224">
<rect width="25" height="25" fill="white" transform="translate(0.0410156)"/>
</clipPath>
</defs>
</svg>
