<svg width="31" height="30" viewBox="0 0 31 30" fill="none" xmlns="http://www.w3.org/2000/svg">
<path d="M26.3411 21.4248L21.1146 16.8048C20.8676 16.5865 20.5429 16.4701 20.2092 16.4801C19.8756 16.4901 19.5589 16.6258 19.3262 16.8586L16.2495 19.9348C15.5089 19.7973 14.0201 19.3461 12.4875 17.8598C10.9549 16.3686 10.4908 14.9173 10.3532 14.2023L13.5148 11.2098C13.7545 10.9837 13.8942 10.6758 13.9046 10.3513C13.9149 10.0268 13.7949 9.71111 13.5701 9.47106L8.81936 4.39106C8.59441 4.15026 8.28177 4.00419 7.94784 3.98389C7.6139 3.96358 7.28498 4.07063 7.03093 4.28231L4.24093 6.60856C4.01864 6.82545 3.88597 7.11412 3.86807 7.41981C3.84878 7.73231 3.48107 15.1348 9.38507 20.8773C14.5356 25.8836 20.9874 26.2498 22.7642 26.2498C23.0239 26.2498 23.1834 26.2423 23.2258 26.2398C23.5402 26.2227 23.8369 26.0931 24.0589 25.8761L26.4504 23.1623C26.6689 22.9161 26.7799 22.5966 26.7594 22.2719C26.739 21.9473 26.5889 21.6433 26.3411 21.4248Z" fill="#F16767"/>
</svg>
