<svg width="32" height="30" viewBox="0 0 32 30" fill="none" xmlns="http://www.w3.org/2000/svg">
<g clip-path="url(#clip0_40_2597)">
<path d="M31.1124 6.17147C30.0388 6.63397 28.8855 6.94647 27.6731 7.08772C28.9241 6.35996 29.86 5.21455 30.3062 3.86522C29.1309 4.54396 27.8445 5.02171 26.5031 5.27772C25.601 4.3413 24.4062 3.72063 23.1041 3.51206C21.802 3.3035 20.4655 3.51871 19.3021 4.12428C18.1387 4.72986 17.2135 5.69192 16.6701 6.8611C16.1268 8.03028 15.9956 9.34116 16.2971 10.5902C13.9155 10.474 11.5858 9.87215 9.45892 8.82385C7.33209 7.77554 5.45574 6.30417 3.95166 4.50522C3.43737 5.36772 3.14166 6.36772 3.14166 7.43272C3.14109 8.39146 3.38393 9.33552 3.84865 10.1811C4.31336 11.0267 4.98558 11.7478 5.80566 12.2802C4.85459 12.2508 3.9245 12.0009 3.0928 11.5515V11.6265C3.09271 12.9711 3.57113 14.2744 4.44689 15.3152C5.32266 16.356 6.54182 17.0701 7.89752 17.3365C7.01524 17.5686 6.09024 17.6028 5.19237 17.4365C5.57487 18.5935 6.31994 19.6053 7.32327 20.3301C8.32661 21.055 9.53798 21.4567 10.7878 21.479C8.66616 23.0982 6.04594 23.9766 3.34866 23.9727C2.87086 23.9728 2.39347 23.9457 1.91895 23.8915C4.65684 25.6029 7.84395 26.5112 11.0989 26.5077C22.1175 26.5077 28.1411 17.6352 28.1411 9.94022C28.1411 9.69022 28.1347 9.43772 28.1231 9.18772C29.2947 8.36394 30.3061 7.34384 31.1098 6.17522L31.1124 6.17147Z" fill="#F16767"/>
</g>
<defs>
<clipPath id="clip0_40_2597">
<rect width="30.8571" height="30" fill="white" transform="translate(0.713867)"/>
</clipPath>
</defs>
</svg>
